<svg width="135" height="23" viewBox="0 0 135 23" fill="none" xmlns="http://www.w3.org/2000/svg">
<path d="M8.36 1.2C9.88 1.2 11.2 1.456 12.32 1.968C13.44 2.464 14.304 3.184 14.912 4.128C15.52 5.056 15.824 6.152 15.824 7.416C15.824 8.68 15.52 9.776 14.912 10.704C14.304 11.632 13.44 12.352 12.32 12.864C11.2 13.36 9.88 13.608 8.36 13.608H5.432V18H0.68V1.2H8.36ZM8.072 9.864C9.048 9.864 9.784 9.656 10.28 9.24C10.776 8.808 11.024 8.2 11.024 7.416C11.024 6.632 10.776 6.024 10.28 5.592C9.784 5.16 9.048 4.944 8.072 4.944H5.432V9.864H8.072ZM23.3518 4.776C25.5118 4.776 27.1598 5.272 28.2958 6.264C29.4318 7.24 29.9998 8.744 29.9998 10.776V18H25.7518V16.32C25.0958 17.584 23.8158 18.216 21.9118 18.216C20.9038 18.216 20.0318 18.04 19.2958 17.688C18.5598 17.336 17.9998 16.864 17.6158 16.272C17.2478 15.664 17.0638 14.976 17.0638 14.208C17.0638 12.976 17.5358 12.024 18.4798 11.352C19.4238 10.664 20.8798 10.32 22.8478 10.32H25.4398C25.3598 8.944 24.4398 8.256 22.6797 8.256C22.0558 8.256 21.4238 8.36 20.7838 8.568C20.1438 8.76 19.5998 9.032 19.1518 9.384L17.6158 6.288C18.3358 5.808 19.2078 5.44 20.2318 5.184C21.2718 4.912 22.3118 4.776 23.3518 4.776ZM23.1838 15.336C23.7118 15.336 24.1758 15.208 24.5758 14.952C24.9758 14.696 25.2638 14.32 25.4398 13.824V12.696H23.4718C22.1438 12.696 21.4798 13.136 21.4798 14.016C21.4798 14.416 21.6318 14.736 21.9358 14.976C22.2398 15.216 22.6558 15.336 23.1838 15.336ZM46.3477 4.992L40.7317 18.528C40.0757 20.128 39.2757 21.248 38.3317 21.888C37.3877 22.544 36.2357 22.872 34.8757 22.872C34.1877 22.872 33.4917 22.76 32.7877 22.536C32.0997 22.328 31.5397 22.048 31.1077 21.696L32.6917 18.504C32.9477 18.744 33.2517 18.928 33.6037 19.056C33.9717 19.2 34.3397 19.272 34.7077 19.272C35.1397 19.272 35.4917 19.184 35.7637 19.008C36.0517 18.832 36.2917 18.552 36.4837 18.168L30.9157 4.992H35.5957L38.7877 12.936L42.0037 4.992H46.3477Z" fill="#4200FF"/>
<path d="M8.36 1.2C9.88 1.2 11.2 1.456 12.32 1.968C13.44 2.464 14.304 3.184 14.912 4.128C15.52 5.056 15.824 6.152 15.824 7.416C15.824 8.68 15.52 9.776 14.912 10.704C14.304 11.632 13.44 12.352 12.32 12.864C11.2 13.36 9.88 13.608 8.36 13.608H5.432V18H0.68V1.2H8.36ZM8.072 9.864C9.048 9.864 9.784 9.656 10.28 9.24C10.776 8.808 11.024 8.2 11.024 7.416C11.024 6.632 10.776 6.024 10.28 5.592C9.784 5.16 9.048 4.944 8.072 4.944H5.432V9.864H8.072ZM23.3518 4.776C25.5118 4.776 27.1598 5.272 28.2958 6.264C29.4318 7.24 29.9998 8.744 29.9998 10.776V18H25.7518V16.32C25.0958 17.584 23.8158 18.216 21.9118 18.216C20.9038 18.216 20.0318 18.04 19.2958 17.688C18.5598 17.336 17.9998 16.864 17.6158 16.272C17.2478 15.664 17.0638 14.976 17.0638 14.208C17.0638 12.976 17.5358 12.024 18.4798 11.352C19.4238 10.664 20.8798 10.32 22.8478 10.32H25.4398C25.3598 8.944 24.4398 8.256 22.6797 8.256C22.0558 8.256 21.4238 8.36 20.7838 8.568C20.1438 8.76 19.5998 9.032 19.1518 9.384L17.6158 6.288C18.3358 5.808 19.2078 5.44 20.2318 5.184C21.2718 4.912 22.3118 4.776 23.3518 4.776ZM23.1838 15.336C23.7118 15.336 24.1758 15.208 24.5758 14.952C24.9758 14.696 25.2638 14.32 25.4398 13.824V12.696H23.4718C22.1438 12.696 21.4798 13.136 21.4798 14.016C21.4798 14.416 21.6318 14.736 21.9358 14.976C22.2398 15.216 22.6558 15.336 23.1838 15.336ZM46.3477 4.992L40.7317 18.528C40.0757 20.128 39.2757 21.248 38.3317 21.888C37.3877 22.544 36.2357 22.872 34.8757 22.872C34.1877 22.872 33.4917 22.76 32.7877 22.536C32.0997 22.328 31.5397 22.048 31.1077 21.696L32.6917 18.504C32.9477 18.744 33.2517 18.928 33.6037 19.056C33.9717 19.2 34.3397 19.272 34.7077 19.272C35.1397 19.272 35.4917 19.184 35.7637 19.008C36.0517 18.832 36.2917 18.552 36.4837 18.168L30.9157 4.992H35.5957L38.7877 12.936L42.0037 4.992H46.3477Z" fill="#002D69"/>
<path d="M50.5745 2.736V9.336H59.2625V10.872H50.5745V18H48.7985V1.2H60.3185V2.736H50.5745ZM65.0236 7.848C65.4236 7 66.0156 6.36 66.7996 5.928C67.5996 5.496 68.5836 5.28 69.7516 5.28V6.936L69.3436 6.912C68.0156 6.912 66.9756 7.32 66.2236 8.136C65.4716 8.952 65.0956 10.096 65.0956 11.568V18H63.3916V5.376H65.0236V7.848ZM72.8369 5.376H74.5409V18H72.8369V5.376ZM73.7009 2.616C73.3489 2.616 73.0529 2.496 72.8129 2.256C72.5729 2.016 72.4529 1.728 72.4529 1.392C72.4529 1.072 72.5729 0.791999 72.8129 0.551999C73.0529 0.311999 73.3489 0.191999 73.7009 0.191999C74.0529 0.191999 74.3489 0.311999 74.5889 0.551999C74.8289 0.775999 74.9489 1.048 74.9489 1.368C74.9489 1.72 74.8289 2.016 74.5889 2.256C74.3489 2.496 74.0529 2.616 73.7009 2.616ZM90.2743 12.216H79.7143C79.8103 13.528 80.3143 14.592 81.2263 15.408C82.1383 16.208 83.2903 16.608 84.6823 16.608C85.4663 16.608 86.1863 16.472 86.8423 16.2C87.4983 15.912 88.0663 15.496 88.5463 14.952L89.5063 16.056C88.9463 16.728 88.2423 17.24 87.3943 17.592C86.5623 17.944 85.6423 18.12 84.6343 18.12C83.3383 18.12 82.1863 17.848 81.1783 17.304C80.1863 16.744 79.4103 15.976 78.8503 15C78.2903 14.024 78.0103 12.92 78.0103 11.688C78.0103 10.456 78.2743 9.352 78.8023 8.376C79.3463 7.4 80.0823 6.64 81.0103 6.096C81.9543 5.552 83.0103 5.28 84.1783 5.28C85.3463 5.28 86.3943 5.552 87.3223 6.096C88.2503 6.64 88.9783 7.4 89.5063 8.376C90.0343 9.336 90.2983 10.44 90.2983 11.688L90.2743 12.216ZM84.1783 6.744C82.9623 6.744 81.9383 7.136 81.1063 7.92C80.2903 8.688 79.8263 9.696 79.7143 10.944H88.6663C88.5543 9.696 88.0823 8.688 87.2503 7.92C86.4343 7.136 85.4103 6.744 84.1783 6.744ZM100.199 5.28C101.783 5.28 103.039 5.744 103.967 6.672C104.911 7.584 105.383 8.92 105.383 10.68V18H103.679V10.848C103.679 9.536 103.351 8.536 102.695 7.848C102.039 7.16 101.103 6.816 99.8866 6.816C98.5266 6.816 97.4466 7.224 96.6466 8.04C95.8626 8.84 95.4706 9.952 95.4706 11.376V18H93.7666V5.376H95.3986V7.704C95.8626 6.936 96.5026 6.344 97.3186 5.928C98.1506 5.496 99.1106 5.28 100.199 5.28ZM121.576 0.191999V18H119.944V15.504C119.432 16.352 118.752 17 117.904 17.448C117.072 17.896 116.128 18.12 115.072 18.12C113.888 18.12 112.816 17.848 111.856 17.304C110.896 16.76 110.144 16 109.6 15.024C109.056 14.048 108.784 12.936 108.784 11.688C108.784 10.44 109.056 9.328 109.6 8.352C110.144 7.376 110.896 6.624 111.856 6.096C112.816 5.552 113.888 5.28 115.072 5.28C116.096 5.28 117.016 5.496 117.832 5.928C118.664 6.344 119.344 6.96 119.872 7.776V0.191999H121.576ZM115.216 16.608C116.096 16.608 116.888 16.408 117.592 16.008C118.312 15.592 118.872 15.008 119.272 14.256C119.688 13.504 119.896 12.648 119.896 11.688C119.896 10.728 119.688 9.872 119.272 9.12C118.872 8.368 118.312 7.792 117.592 7.392C116.888 6.976 116.096 6.768 115.216 6.768C114.32 6.768 113.512 6.976 112.792 7.392C112.088 7.792 111.528 8.368 111.112 9.12C110.712 9.872 110.512 10.728 110.512 11.688C110.512 12.648 110.712 13.504 111.112 14.256C111.528 15.008 112.088 15.592 112.792 16.008C113.512 16.408 114.32 16.608 115.216 16.608ZM129.705 18.12C128.681 18.12 127.697 17.976 126.753 17.688C125.825 17.384 125.097 17.008 124.569 16.56L125.337 15.216C125.865 15.632 126.529 15.976 127.329 16.248C128.129 16.504 128.961 16.632 129.825 16.632C130.977 16.632 131.825 16.456 132.369 16.104C132.929 15.736 133.209 15.224 133.209 14.568C133.209 14.104 133.057 13.744 132.753 13.488C132.449 13.216 132.065 13.016 131.601 12.888C131.137 12.744 130.521 12.608 129.753 12.48C128.729 12.288 127.905 12.096 127.281 11.904C126.657 11.696 126.121 11.352 125.673 10.872C125.241 10.392 125.025 9.728 125.025 8.88C125.025 7.824 125.465 6.96 126.345 6.288C127.225 5.616 128.449 5.28 130.017 5.28C130.833 5.28 131.649 5.392 132.465 5.616C133.281 5.824 133.953 6.104 134.481 6.456L133.737 7.824C132.697 7.104 131.457 6.744 130.017 6.744C128.929 6.744 128.105 6.936 127.545 7.32C127.001 7.704 126.729 8.208 126.729 8.832C126.729 9.312 126.881 9.696 127.185 9.984C127.505 10.272 127.897 10.488 128.361 10.632C128.825 10.76 129.465 10.896 130.281 11.04C131.289 11.232 132.097 11.424 132.705 11.616C133.313 11.808 133.833 12.136 134.265 12.6C134.697 13.064 134.913 13.704 134.913 14.52C134.913 15.624 134.449 16.504 133.521 17.16C132.609 17.8 131.337 18.12 129.705 18.12Z" fill="#4200FF"/>
<path d="M50.5745 2.736V9.336H59.2625V10.872H50.5745V18H48.7985V1.2H60.3185V2.736H50.5745ZM65.0236 7.848C65.4236 7 66.0156 6.36 66.7996 5.928C67.5996 5.496 68.5836 5.28 69.7516 5.28V6.936L69.3436 6.912C68.0156 6.912 66.9756 7.32 66.2236 8.136C65.4716 8.952 65.0956 10.096 65.0956 11.568V18H63.3916V5.376H65.0236V7.848ZM72.8369 5.376H74.5409V18H72.8369V5.376ZM73.7009 2.616C73.3489 2.616 73.0529 2.496 72.8129 2.256C72.5729 2.016 72.4529 1.728 72.4529 1.392C72.4529 1.072 72.5729 0.791999 72.8129 0.551999C73.0529 0.311999 73.3489 0.191999 73.7009 0.191999C74.0529 0.191999 74.3489 0.311999 74.5889 0.551999C74.8289 0.775999 74.9489 1.048 74.9489 1.368C74.9489 1.72 74.8289 2.016 74.5889 2.256C74.3489 2.496 74.0529 2.616 73.7009 2.616ZM90.2743 12.216H79.7143C79.8103 13.528 80.3143 14.592 81.2263 15.408C82.1383 16.208 83.2903 16.608 84.6823 16.608C85.4663 16.608 86.1863 16.472 86.8423 16.2C87.4983 15.912 88.0663 15.496 88.5463 14.952L89.5063 16.056C88.9463 16.728 88.2423 17.24 87.3943 17.592C86.5623 17.944 85.6423 18.12 84.6343 18.12C83.3383 18.12 82.1863 17.848 81.1783 17.304C80.1863 16.744 79.4103 15.976 78.8503 15C78.2903 14.024 78.0103 12.92 78.0103 11.688C78.0103 10.456 78.2743 9.352 78.8023 8.376C79.3463 7.4 80.0823 6.64 81.0103 6.096C81.9543 5.552 83.0103 5.28 84.1783 5.28C85.3463 5.28 86.3943 5.552 87.3223 6.096C88.2503 6.64 88.9783 7.4 89.5063 8.376C90.0343 9.336 90.2983 10.44 90.2983 11.688L90.2743 12.216ZM84.1783 6.744C82.9623 6.744 81.9383 7.136 81.1063 7.92C80.2903 8.688 79.8263 9.696 79.7143 10.944H88.6663C88.5543 9.696 88.0823 8.688 87.2503 7.92C86.4343 7.136 85.4103 6.744 84.1783 6.744ZM100.199 5.28C101.783 5.28 103.039 5.744 103.967 6.672C104.911 7.584 105.383 8.92 105.383 10.68V18H103.679V10.848C103.679 9.536 103.351 8.536 102.695 7.848C102.039 7.16 101.103 6.816 99.8866 6.816C98.5266 6.816 97.4466 7.224 96.6466 8.04C95.8626 8.84 95.4706 9.952 95.4706 11.376V18H93.7666V5.376H95.3986V7.704C95.8626 6.936 96.5026 6.344 97.3186 5.928C98.1506 5.496 99.1106 5.28 100.199 5.28ZM121.576 0.191999V18H119.944V15.504C119.432 16.352 118.752 17 117.904 17.448C117.072 17.896 116.128 18.12 115.072 18.12C113.888 18.12 112.816 17.848 111.856 17.304C110.896 16.76 110.144 16 109.6 15.024C109.056 14.048 108.784 12.936 108.784 11.688C108.784 10.44 109.056 9.328 109.6 8.352C110.144 7.376 110.896 6.624 111.856 6.096C112.816 5.552 113.888 5.28 115.072 5.28C116.096 5.28 117.016 5.496 117.832 5.928C118.664 6.344 119.344 6.96 119.872 7.776V0.191999H121.576ZM115.216 16.608C116.096 16.608 116.888 16.408 117.592 16.008C118.312 15.592 118.872 15.008 119.272 14.256C119.688 13.504 119.896 12.648 119.896 11.688C119.896 10.728 119.688 9.872 119.272 9.12C118.872 8.368 118.312 7.792 117.592 7.392C116.888 6.976 116.096 6.768 115.216 6.768C114.32 6.768 113.512 6.976 112.792 7.392C112.088 7.792 111.528 8.368 111.112 9.12C110.712 9.872 110.512 10.728 110.512 11.688C110.512 12.648 110.712 13.504 111.112 14.256C111.528 15.008 112.088 15.592 112.792 16.008C113.512 16.408 114.32 16.608 115.216 16.608ZM129.705 18.12C128.681 18.12 127.697 17.976 126.753 17.688C125.825 17.384 125.097 17.008 124.569 16.56L125.337 15.216C125.865 15.632 126.529 15.976 127.329 16.248C128.129 16.504 128.961 16.632 129.825 16.632C130.977 16.632 131.825 16.456 132.369 16.104C132.929 15.736 133.209 15.224 133.209 14.568C133.209 14.104 133.057 13.744 132.753 13.488C132.449 13.216 132.065 13.016 131.601 12.888C131.137 12.744 130.521 12.608 129.753 12.48C128.729 12.288 127.905 12.096 127.281 11.904C126.657 11.696 126.121 11.352 125.673 10.872C125.241 10.392 125.025 9.728 125.025 8.88C125.025 7.824 125.465 6.96 126.345 6.288C127.225 5.616 128.449 5.28 130.017 5.28C130.833 5.28 131.649 5.392 132.465 5.616C133.281 5.824 133.953 6.104 134.481 6.456L133.737 7.824C132.697 7.104 131.457 6.744 130.017 6.744C128.929 6.744 128.105 6.936 127.545 7.32C127.001 7.704 126.729 8.208 126.729 8.832C126.729 9.312 126.881 9.696 127.185 9.984C127.505 10.272 127.897 10.488 128.361 10.632C128.825 10.76 129.465 10.896 130.281 11.04C131.289 11.232 132.097 11.424 132.705 11.616C133.313 11.808 133.833 12.136 134.265 12.6C134.697 13.064 134.913 13.704 134.913 14.52C134.913 15.624 134.449 16.504 133.521 17.16C132.609 17.8 131.337 18.12 129.705 18.12Z" fill="#2F82DD"/>
</svg>
